<?xml version="1.0" standalone="no"?>
<!DOCTYPE svg PUBLIC "-//W3C//DTD SVG 20010904//EN"
 "http://www.w3.org/TR/2001/REC-SVG-20010904/DTD/svg10.dtd">
<svg version="1.0" xmlns="http://www.w3.org/2000/svg"
 width="400.000000pt" height="65.000000pt" viewBox="0 0 400.000000 65.000000"
 preserveAspectRatio="xMidYMid meet">

<g transform="translate(0.000000,65.000000) scale(0.100000,-0.100000)"
fill="#000000" stroke="none">
<path d="M945 645 c-5 -2 -22 -6 -37 -9 -38 -9 -62 -34 -47 -52 15 -19 129
-18 174 0 37 16 48 49 19 60 -16 6 -91 7 -109 1z"/>
<path d="M1127 634 c-12 -13 -7 -44 8 -50 13 -5 15 -44 15 -264 0 -225 -2
-259 -16 -264 -9 -3 -14 -15 -12 -28 3 -22 7 -23 117 -26 77 -2 118 1 127 9
11 9 18 9 26 1 13 -13 203 -17 232 -6 20 8 21 40 1 48 -25 9 -20 111 7 148
l21 31 37 -107 c20 -58 40 -109 44 -113 13 -13 172 -16 194 -4 14 7 23 8 27 1
7 -11 213 -14 239 -4 20 8 20 28 1 44 -13 11 -15 43 -13 203 l3 191 26 7 c15
3 31 4 37 0 7 -4 12 -82 14 -215 4 -246 -2 -236 119 -236 43 0 84 3 93 6 20 8
20 28 1 44 -13 11 -15 43 -13 204 l3 191 27 9 c54 19 58 5 58 -215 0 -247 -3
-241 128 -237 80 3 87 5 90 24 2 11 -4 27 -13 34 -13 10 -15 45 -15 220 l0
208 -31 26 c-25 21 -41 26 -85 26 -56 0 -115 -19 -145 -46 -14 -13 -18 -13
-29 1 -42 50 -135 59 -217 21 l-52 -25 -3 22 c-3 21 -9 22 -115 25 -108 3
-113 2 -113 -18 0 -11 7 -23 15 -26 23 -9 22 -419 -1 -445 -15 -17 -17 -17
-34 -1 -10 9 -48 93 -84 186 l-66 169 21 33 c11 18 36 42 55 53 56 33 40 46
-66 49 -108 3 -130 -7 -87 -42 15 -12 27 -25 27 -29 0 -3 -26 -46 -57 -94
l-58 -88 -3 178 -2 177 -110 0 -110 0 0 -26 c0 -14 7 -32 15 -40 13 -13 15
-56 15 -262 0 -232 -1 -249 -19 -264 -18 -15 -20 -15 -35 1 -13 15 -16 60 -18
302 l-3 284 -106 3 c-58 1 -108 -1 -112 -4z"/>
<path d="M3852 610 c-25 -33 -89 -70 -122 -70 -15 0 -20 -7 -20 -25 0 -18 5
-25 20 -25 19 0 20 -7 20 -223 0 -221 0 -224 23 -245 20 -19 35 -22 115 -22
77 0 94 3 99 16 4 11 -3 23 -20 36 l-27 20 0 209 0 209 30 0 c25 0 30 4 30 25
0 21 -5 25 -30 25 -29 0 -30 1 -30 50 0 50 0 50 -33 50 -25 0 -39 -7 -55 -30z"/>
<path d="M3 523 c-4 -11 1 -22 15 -31 21 -14 22 -20 22 -223 0 -198 -1 -209
-20 -219 -27 -14 -25 -38 3 -45 12 -3 69 -5 127 -3 94 3 105 5 108 22 2 10 -3
23 -12 28 -14 8 -16 35 -16 198 l0 188 28 10 c18 6 35 6 45 0 15 -8 17 -33 17
-212 0 -248 -5 -238 126 -234 78 3 89 5 92 22 2 10 -3 23 -12 28 -14 8 -16 34
-16 191 0 100 4 187 8 194 13 21 58 26 76 8 14 -14 16 -44 16 -214 0 -238 -3
-231 112 -231 42 0 83 3 92 6 20 8 21 28 1 44 -12 10 -15 47 -15 217 0 121 -4
212 -10 224 -30 55 -135 65 -223 21 l-56 -28 -25 25 c-20 19 -38 26 -84 29
-56 4 -80 -3 -164 -46 -5 -2 -8 8 -8 22 l0 26 -110 0 c-94 0 -112 -2 -117 -17z"/>
<path d="M843 523 c-4 -11 1 -22 15 -31 21 -14 22 -20 22 -222 0 -202 -1 -208
-22 -222 -14 -10 -19 -20 -15 -32 6 -15 21 -16 129 -14 112 3 123 5 126 22 2
10 -3 23 -12 28 -14 8 -16 39 -16 248 l0 240 -110 0 c-94 0 -112 -2 -117 -17z"/>
<path d="M2925 531 c-75 -19 -115 -53 -115 -97 0 -40 21 -54 78 -54 61 0 101
18 108 48 9 46 20 57 55 57 34 0 34 0 37 -52 l3 -51 -53 -16 c-29 -8 -66 -18
-83 -22 -68 -16 -134 -52 -149 -83 -25 -48 -21 -160 7 -202 42 -62 138 -76
226 -33 l52 26 25 -23 c22 -21 36 -24 99 -24 84 0 108 12 87 45 -8 14 -12 74
-12 193 0 101 -5 187 -11 206 -7 21 -26 40 -57 58 -41 24 -57 27 -156 29 -61
2 -124 0 -141 -5z m165 -310 c0 -112 -9 -141 -45 -141 -7 0 -21 7 -29 16 -23
22 -22 161 0 192 14 21 45 40 67 41 4 1 7 -48 7 -108z"/>
<path d="M3325 530 c-4 -6 2 -22 14 -34 20 -21 21 -33 21 -229 0 -175 -2 -209
-15 -213 -23 -9 -18 -43 8 -49 12 -3 69 -5 127 -3 93 3 105 5 108 21 2 11 -5
25 -17 33 -20 14 -21 24 -21 182 0 176 6 206 37 184 43 -30 63 -35 87 -24 43
19 44 106 2 134 -16 11 -64 10 -85 -1 -10 -6 -26 -29 -37 -53 l-19 -43 -5 50
-5 50 -97 3 c-63 2 -99 -1 -103 -8z"/>
</g>
</svg>
